<?xml version="1.0" encoding="UTF-8"?>
<svg xmlns="http://www.w3.org/2000/svg" xmlns:xlink="http://www.w3.org/1999/xlink" width="50px" height="50px" viewBox="0 0 50 50" version="1.1">
<g id="surface1">
<path style=" stroke:none;fill-rule:nonzero;fill:rgb(13.72549%,12.156863%,12.54902%);fill-opacity:1;" d="M -0.265625 0.128906 L 50.066406 0.128906 L 50.066406 50.128906 L -0.265625 50.128906 Z M -0.265625 0.128906 "/>
<path style=" stroke:none;fill-rule:nonzero;fill:rgb(97.647059%,97.254902%,96.470588%);fill-opacity:1;" d="M 6.269531 24.601562 L 6.269531 4.542969 L 3.410156 4.542969 L 3.410156 0.0078125 L 11.027344 0.0078125 L 11.027344 24.601562 Z M 6.269531 24.601562 "/>
<path style=" stroke:none;fill-rule:nonzero;fill:rgb(97.647059%,97.254902%,96.470588%);fill-opacity:1;" d="M 10.710938 24.609375 L 19.972656 8.273438 C 20.285156 7.746094 20.351562 7.128906 20.351562 6.59375 C 20.351562 5.320312 19.289062 4.265625 18.015625 4.265625 C 16.738281 4.265625 15.683594 5.320312 15.683594 6.59375 L 15.683594 8.867188 L 11.015625 8.867188 L 11.015625 7 C 11.015625 3.144531 14.152344 0 18.015625 0 C 21.875 0 25.019531 3.144531 25.019531 7 C 25.019531 9.113281 24.179688 10.300781 23.898438 10.761719 L 18.269531 20.128906 L 25.019531 20.128906 L 25.019531 24.609375 Z M 10.710938 24.609375 "/>
<path style=" stroke:none;fill-rule:nonzero;fill:rgb(97.647059%,97.254902%,96.470588%);fill-opacity:1;" d="M 28.566406 49.988281 L 28.566406 29.929688 L 25.714844 29.929688 L 25.714844 25.382812 L 33.332031 25.382812 L 33.332031 49.988281 Z M 28.566406 49.988281 "/>
<path style=" stroke:none;fill-rule:nonzero;fill:rgb(97.647059%,97.254902%,96.470588%);fill-opacity:1;" d="M 33.007812 49.992188 L 42.277344 33.664062 C 42.589844 33.132812 42.65625 32.511719 42.65625 31.984375 C 42.65625 30.710938 41.59375 29.648438 40.320312 29.648438 C 39.042969 29.648438 37.988281 30.710938 37.988281 31.984375 L 37.988281 34.25 L 33.320312 34.25 L 33.320312 32.390625 C 33.320312 28.527344 36.457031 25.382812 40.320312 25.382812 C 44.179688 25.382812 47.316406 28.527344 47.316406 32.390625 C 47.316406 34.503906 46.476562 35.683594 46.199219 36.152344 L 40.574219 45.515625 L 47.316406 45.515625 L 47.316406 49.992188 Z M 33.007812 49.992188 "/>
<path style=" stroke:none;fill-rule:nonzero;fill:rgb(97.647059%,97.254902%,96.470588%);fill-opacity:1;" d="M 20.246094 49.988281 L 20.246094 47.988281 C 20.246094 44.089844 19.929688 42.179688 18.144531 40.402344 C 16.394531 42.179688 16.042969 44.148438 16.042969 47.988281 L 16.042969 49.988281 L 11.257812 49.988281 L 11.257812 47.988281 C 11.257812 43.925781 11.894531 40.273438 14.636719 37.707031 C 11.894531 35.105469 11.257812 31.453125 11.257812 27.390625 L 11.257812 25.390625 L 16.042969 25.390625 L 16.042969 27.390625 C 16.042969 30.886719 16.394531 33.230469 18.144531 34.972656 C 19.863281 33.203125 20.246094 31.140625 20.246094 27.390625 L 20.246094 25.390625 L 25.03125 25.390625 L 25.03125 27.390625 C 25.03125 31.453125 24.363281 35.105469 21.621094 37.707031 C 24.363281 40.273438 25.03125 43.925781 25.03125 47.988281 L 25.03125 49.988281 Z M 20.246094 49.988281 "/>
</g>
</svg>
