<?xml version="1.0" encoding="UTF-8"?>
<svg xmlns="http://www.w3.org/2000/svg" xmlns:xlink="http://www.w3.org/1999/xlink" width="60px" height="60px" viewBox="0 0 60 60" version="1.1">
<g id="surface1">
<path style=" stroke:none;fill-rule:nonzero;fill:rgb(97.647059%,97.254902%,96.470588%);fill-opacity:1;" d="M 7.519531 29.523438 L 7.519531 5.453125 L 4.09375 5.453125 L 4.09375 0.00390625 L 13.230469 0.00390625 L 13.230469 29.523438 Z M 7.519531 29.523438 "/>
<path style=" stroke:none;fill-rule:nonzero;fill:rgb(97.647059%,97.254902%,96.470588%);fill-opacity:1;" d="M 12.847656 29.527344 L 23.972656 9.933594 C 24.34375 9.296875 24.421875 8.550781 24.421875 7.914062 C 24.421875 6.382812 23.148438 5.117188 21.621094 5.117188 C 20.089844 5.117188 18.820312 6.382812 18.820312 7.914062 L 18.820312 10.640625 L 13.21875 10.640625 L 13.21875 8.398438 C 13.21875 3.773438 16.988281 0 21.621094 0 C 26.246094 0 30.019531 3.773438 30.019531 8.398438 C 30.019531 10.941406 29.011719 12.355469 28.675781 12.914062 L 21.921875 24.15625 L 30.019531 24.15625 L 30.019531 29.53125 L 12.847656 29.53125 Z M 12.847656 29.527344 "/>
<path style=" stroke:none;fill-rule:nonzero;fill:rgb(97.647059%,97.254902%,96.470588%);fill-opacity:1;" d="M 34.285156 59.984375 L 34.285156 35.910156 L 30.855469 35.910156 L 30.855469 30.464844 L 40 30.464844 L 40 59.984375 Z M 34.285156 59.984375 "/>
<path style=" stroke:none;fill-rule:nonzero;fill:rgb(97.647059%,97.254902%,96.470588%);fill-opacity:1;" d="M 39.613281 59.992188 L 50.734375 40.394531 C 51.109375 39.761719 51.183594 39.015625 51.183594 38.378906 C 51.183594 36.847656 49.910156 35.578125 48.382812 35.578125 C 46.851562 35.578125 45.585938 36.847656 45.585938 38.378906 L 45.585938 41.105469 L 39.984375 41.105469 L 39.984375 38.863281 C 39.984375 34.234375 43.753906 30.464844 48.382812 30.464844 C 53.011719 30.464844 56.785156 34.234375 56.785156 38.863281 C 56.785156 41.402344 55.777344 42.820312 55.441406 43.378906 L 48.683594 54.617188 L 56.785156 54.617188 L 56.785156 59.992188 Z M 39.613281 59.992188 "/>
<path style=" stroke:none;fill-rule:nonzero;fill:rgb(97.647059%,97.254902%,96.470588%);fill-opacity:1;" d="M 24.296875 59.988281 L 24.296875 57.589844 C 24.296875 52.902344 23.910156 50.617188 21.773438 48.484375 C 19.667969 50.617188 19.246094 52.980469 19.246094 57.589844 L 19.246094 59.988281 L 13.507812 59.988281 L 13.507812 57.589844 C 13.507812 52.710938 14.273438 48.332031 17.5625 45.246094 C 14.273438 42.125 13.507812 37.742188 13.507812 32.867188 L 13.507812 30.46875 L 19.246094 30.46875 L 19.246094 32.867188 C 19.246094 37.058594 19.667969 39.875 21.773438 41.972656 C 23.835938 39.839844 24.296875 37.363281 24.296875 32.867188 L 24.296875 30.46875 L 30.035156 30.46875 L 30.035156 32.867188 C 30.035156 37.742188 29.230469 42.125 25.945312 45.246094 C 29.234375 48.332031 30.035156 52.710938 30.035156 57.589844 L 30.035156 59.988281 Z M 24.296875 59.988281 "/>
</g>
</svg>
